<svg xmlns="http://www.w3.org/2000/svg" width="768.335" height="1023.901"><defs><style>.b{fill:#f1f1fd;opacity:.2}.c{fill:url(#b)}</style><linearGradient id="a" x1=".882" y1=".178" x2=".231" y2="1.124" gradientUnits="objectBoundingBox"><stop offset="0" stop-color="#b3a2f2"/><stop offset=".499" stop-color="#6557e1"/><stop offset="1" stop-color="#5946d5"/></linearGradient><linearGradient id="b" x1=".998" y1="1.052" x2=".062" y2=".39" gradientUnits="objectBoundingBox"><stop offset="0" stop-color="#fafafa" stop-opacity="0"/><stop offset="1" stop-color="#fff"/></linearGradient></defs><g transform="translate(-437.977)"><path transform="translate(438)" fill="url(#a)" d="M0 0h768.313v1023.901H0z"/><rect class="b" width="133.825" height="17.601" rx="8.801" transform="translate(841.277 156.524)"/><rect class="b" width="150.789" height="22.001" rx="11.001" transform="translate(952.484 214.357)"/><rect class="b" width="150.789" height="22.001" rx="11.001" transform="translate(484.484 192.357)"/><rect class="c" width="128.2" height="4.366" rx="2.183" transform="rotate(-43 828.191 -1065.278)"/><rect class="c" width="74.155" height="3.123" rx="1.562" transform="rotate(-43 677.524 -1392.416)"/><rect class="c" width="74.155" height="3.123" rx="1.562" transform="rotate(-43 1136.135 -1187.812)"/><rect class="c" width="100.549" height="3.116" rx="1.558" transform="rotate(-43 1054.165 -420.626)"/><rect class="c" width="100.549" height="3.116" rx="1.558" transform="rotate(-43 1296.164 -1034.978)"/><rect class="b" width="165.24" height="22.001" rx="11.001" transform="translate(571.37 289.449)"/><rect class="b" width="124.24" height="22.001" rx="11.001" transform="translate(622.37 676.449)"/><rect class="b" width="71.24" height="22.001" rx="11.001" transform="translate(498.37 766.449)"/><rect class="b" width="81.049" height="20.116" rx="10.058" transform="translate(1054.267 291.676)"/><rect class="b" width="81.049" height="20.116" rx="10.058" transform="translate(1109.267 633.676)"/><rect class="b" width="118.049" height="20.116" rx="10.058" transform="translate(997.267 698.676)"/><rect class="b" width="81.049" height="20.116" rx="10.058" transform="translate(1115.211 106.864)"/><path d="M729.774.034s-14.479 143.53-154.232 181.3-136.983 194.43-136.983 194.43l-.425-111.862.131-263.9z" fill="#b3a2f2"/><path d="M736.313 0s-32.429 139.323-167.807 177.565-130.348 188.819-130.348 188.819l-.181-92.66.051-273.726z" fill="#fff"/><path d="M592.542 0h43.1s-31.561 60.72-86.305 73.457C428.755 101.511 438.193 235.24 438.193 235.24l-.173-63.462L438.193 0z" fill="#f1f1fd"/></g></svg>