<svg xmlns="http://www.w3.org/2000/svg" xmlns:xlink="http://www.w3.org/1999/xlink" width="1920" height="1080" viewBox="0 0 1920 1080"><defs><linearGradient id="a" x1="0.882" y1="0.178" x2="0.231" y2="1.124" gradientUnits="objectBoundingBox"><stop offset="0" stop-color="#b3a2f2"/><stop offset="0.499" stop-color="#6557e1"/><stop offset="1" stop-color="#5946d5"/></linearGradient><linearGradient id="b" x1="0.998" y1="1.052" x2="0.062" y2="0.39" gradientUnits="objectBoundingBox"><stop offset="0" stop-color="#fafafa" stop-opacity="0"/><stop offset="1" stop-color="#fff"/></linearGradient></defs><rect width="1920" height="1080" fill="url(#a)"/><rect width="213" height="28" rx="14" transform="translate(1339 249)" fill="#f1f1fd" opacity="0.2"/><rect width="240" height="35" rx="17.5" transform="translate(1516 341)" fill="#f1f1fd" opacity="0.2"/><rect width="204" height="7" rx="3.5" transform="translate(1510.467 443.265) rotate(-43)" fill="url(#b)"/><rect width="118" height="5" rx="2.5" transform="translate(1801.149 139.996) rotate(-43)" fill="url(#b)"/><rect width="118" height="5" rx="2.5" transform="translate(1775.149 724.996) rotate(-43)" fill="url(#b)"/><rect width="160" height="5" rx="2.5" transform="translate(907.329 780.989) rotate(-43)" fill="url(#b)"/><rect width="263" height="35" rx="17.5" transform="translate(911 505)" fill="#f1f1fd" opacity="0.2"/><rect width="129" height="32" rx="16" transform="translate(1678 464)" fill="#f1f1fd" opacity="0.2"/><rect width="129" height="32" rx="16" transform="translate(1775 170)" fill="#f1f1fd" opacity="0.2"/></svg>