<svg xmlns="http://www.w3.org/2000/svg" xmlns:xlink="http://www.w3.org/1999/xlink" width="1104.704" height="815.457"><defs><linearGradient id="a" x1=".547" y1=".144" x2="1.398" y2="1.543" gradientUnits="objectBoundingBox"><stop offset="0" stop-color="#fff"/><stop offset="1" stop-color="#b3a2f2"/></linearGradient><linearGradient id="b" x1=".313" y1=".309" x2="1.077" y2="-.295" xlink:href="#a"/><linearGradient id="c" x1=".14" y1=".687" x2="1.077" y2="-.295" xlink:href="#a"/><filter id="d" x="527.639" y="243.98" width="577.065" height="527.977" filterUnits="userSpaceOnUse"><feOffset dx="-48" dy="8"/><feGaussianBlur stdDeviation="30" result="f"/><feFlood flood-color="#5e4dda" flood-opacity=".58"/><feComposite operator="in" in2="f"/><feComposite in="SourceGraphic"/></filter><filter id="e" x="235.139" y="309.833" width="535.053" height="505.624" filterUnits="userSpaceOnUse"><feOffset dx="17" dy="-7"/><feGaussianBlur stdDeviation="49.5" result="k"/><feFlood flood-color="#604fdc" flood-opacity=".812"/><feComposite operator="in" in2="k"/><feComposite in="SourceGraphic"/></filter><filter id="f" x="0" y="292.809" width="427.692" height="410.148" filterUnits="userSpaceOnUse"><feOffset dx="1" dy="-31"/><feGaussianBlur stdDeviation="20" result="p"/><feFlood flood-color="#5f4edb" flood-opacity=".851"/><feComposite operator="in" in2="p"/><feComposite in="SourceGraphic"/></filter></defs><path d="M4068.842 1338.058l-291.115 671.434h614.045z" transform="translate(-3490.088 -1335.535)" fill="url(#a)"/><path d="M4007.037 1338.058l-229.31 431.373h483.681z" transform="translate(-3490.088 -1095.474)" opacity=".81" fill="url(#b)"/><path d="M3953.942 1338.058l-176.215 359.371h371.688z" transform="translate(-3490.088 -1023.472)" opacity=".77" fill="url(#c)"/><path d="M287.639 673.956h141.727L579.412-.001z" fill="#b3a2f2"/><g transform="translate(.002 -.003)" filter="url(#d)"><path d="M3965.972 1338.058l-188.246 347.977h397.065z" transform="translate(-3112.09 -1012.08)" fill="url(#a)"/></g><path d="M3926.007 1338.058l-148.281 223.563h312.767z" transform="translate(-3112.088 -887.664)" opacity=".81" fill="url(#b)"/><path d="M3891.674 1338.058l-113.947 186.248h240.348z" transform="translate(-3112.088 -850.349)" opacity=".77" fill="url(#c)"/><path d="M665.639 673.956h91.646l97.027-349.285z" fill="#b3a2f2"/><g transform="translate(.002)" filter="url(#e)"><path d="M3890.586 1338.058l-112.859 208.624h238.053z" transform="translate(-3411.09 -872.72)" fill="url(#a)"/></g><path d="M3866.626 1338.058l-88.9 134.034h187.514z" transform="translate(-3411.088 -798.134)" opacity=".81" fill="url(#b)"/><path d="M3846.042 1338.058l-68.314 111.662h144.1z" transform="translate(-3411.088 -775.762)" opacity=".77" fill="url(#c)"/><path d="M366.638 673.675h54.841l58.06-208.444z" fill="#b3a2f2"/><g transform="translate(.003 .004)" filter="url(#f)"><path d="M3923.6 1338.058l-145.875 290.148h307.692z" transform="translate(-3718.73 -954.25)" fill="url(#a)"/></g><path d="M3892.632 1338.058l-114.905 186.41H4020.1z" transform="translate(-3718.727 -850.511)" opacity=".81" fill="url(#b)"/><path d="M3866.026 1338.058l-88.3 155.3h186.25z" transform="translate(-3718.727 -819.396)" opacity=".77" fill="url(#c)"/><path d="M59 673.957h71.018l75.188-291.239z" fill="#b3a2f2"/></svg>