<svg xmlns="http://www.w3.org/2000/svg" xmlns:xlink="http://www.w3.org/1999/xlink" width="1104.704" height="815.457" viewBox="0 0 1104.704 815.457"><defs><linearGradient id="a" x1="0.547" y1="0.144" x2="1.398" y2="1.543" gradientUnits="objectBoundingBox"><stop offset="0" stop-color="#fff"/><stop offset="1" stop-color="#b3a2f2"/></linearGradient><linearGradient id="b" x1="0.313" y1="0.309" x2="1.077" y2="-0.295" xlink:href="#a"/><linearGradient id="c" x1="0.14" y1="0.687" x2="1.077" y2="-0.295" xlink:href="#a"/><filter id="e" x="527.639" y="243.98" width="577.065" height="527.977" filterUnits="userSpaceOnUse"><feOffset dx="-48" dy="8" input="SourceAlpha"/><feGaussianBlur stdDeviation="30" result="f"/><feFlood flood-color="#5e4dda" flood-opacity="0.58"/><feComposite operator="in" in2="f"/><feComposite in="SourceGraphic"/></filter><filter id="j" x="235.139" y="309.833" width="535.053" height="505.624" filterUnits="userSpaceOnUse"><feOffset dx="17" dy="-7" input="SourceAlpha"/><feGaussianBlur stdDeviation="49.5" result="k"/><feFlood flood-color="#604fdc" flood-opacity="0.812"/><feComposite operator="in" in2="k"/><feComposite in="SourceGraphic"/></filter><filter id="o" x="0" y="292.809" width="427.692" height="410.148" filterUnits="userSpaceOnUse"><feOffset dx="1" dy="-31" input="SourceAlpha"/><feGaussianBlur stdDeviation="20" result="p"/><feFlood flood-color="#5f4edb" flood-opacity="0.851"/><feComposite operator="in" in2="p"/><feComposite in="SourceGraphic"/></filter></defs><g transform="translate(-841.088 -406.5)"><g transform="translate(-2673 -928.035)"><path d="M4068.842,1338.058l-291.115,671.434h614.045Z" transform="translate(24 -1)" fill="url(#a)"/><path d="M4007.037,1338.058l-229.31,431.373h483.681Z" transform="translate(24 239.061)" opacity="0.81" fill="url(#b)"/><path d="M3953.942,1338.058l-176.215,359.371h371.688Z" transform="translate(24 311.063)" opacity="0.77" fill="url(#c)"/><path d="M3777.727,2009.491h141.727L4069.5,1335.534Z" transform="translate(24 -1)" fill="#b3a2f2"/></g><g transform="translate(-2295 -603.363)"><g transform="matrix(1, 0, 0, 1, 3136.09, 1009.86)" filter="url(#e)"><path d="M3965.972,1338.058l-188.246,347.977h397.065Z" transform="translate(-3112.09 -1012.08)" fill="url(#a)"/></g><path d="M3926.007,1338.058l-148.281,223.563h312.767Z" transform="translate(24 122.199)" opacity="0.81" fill="url(#b)"/><path d="M3891.674,1338.058l-113.947,186.248h240.348Z" transform="translate(24 159.514)" opacity="0.77" fill="url(#c)"/><path d="M3777.727,1684.819h91.646l97.027-349.285Z" transform="translate(24 -1)" fill="#b3a2f2"/></g><g transform="matrix(1, 0, 0, 1, 841.09, 406.5)" filter="url(#j)"><path d="M3890.586,1338.058l-112.859,208.624H4015.78Z" transform="translate(-3411.09 -872.72)" fill="url(#a)"/></g><path d="M3866.626,1338.058l-88.9,134.034h187.514Z" transform="translate(-2570 -391.634)" opacity="0.81" fill="url(#b)"/><path d="M3846.042,1338.058l-68.314,111.662h144.1Z" transform="translate(-2570 -369.262)" opacity="0.77" fill="url(#c)"/><path d="M3777.726,1543.978h54.841l58.06-208.444Z" transform="translate(-2570 -463.803)" fill="#b3a2f2"/><g transform="translate(-2901.639 -545.316)"><g transform="matrix(1, 0, 0, 1, 3742.73, 951.82)" filter="url(#o)"><path d="M3923.6,1338.058l-145.875,290.148h307.692Z" transform="translate(-3718.73 -954.25)" fill="url(#a)"/></g><path d="M3892.632,1338.058l-114.905,186.41H4020.1Z" transform="translate(24 101.305)" opacity="0.81" fill="url(#b)"/><path d="M3866.026,1338.058l-88.3,155.3h186.25Z" transform="translate(24 132.42)" opacity="0.77" fill="url(#c)"/><path d="M3777.727,1626.773h71.018l75.188-291.239Z" transform="translate(24 -1)" fill="#b3a2f2"/></g></g></svg>