<svg version="1.1" id="Layer_1" xmlns="http://www.w3.org/2000/svg" xmlns:xlink="http://www.w3.org/1999/xlink" x="0" y="0" viewBox="0 0 1104.7 815.5" xml:space="preserve"><style>.st3{fill:#b3a2f2}</style><g transform="translate(-3514.088 -1334.535)"><linearGradient id="SVGID_1_" gradientUnits="userSpaceOnUse" x1="3107.871" y1="2282.814" x2="3108.808" y2="2281.275" gradientTransform="matrix(614.0449 0 0 -671.434 -1904496.875 1534449)"><stop offset="0" stop-color="#fff"/><stop offset="1" stop-color="#b3a2f2"/></linearGradient><path d="M4086.1 1410.8l-320.4 739h675.8l-355.4-739z" fill="url(#SVGID_1_)"/><linearGradient id="SVGID_2_" gradientUnits="userSpaceOnUse" x1="3108.481" y1="2282.308" x2="3109.322" y2="2282.973" gradientTransform="matrix(483.6812 0 0 -431.3729 -1499445.125 986501.25)"><stop offset="0" stop-color="#fff"/><stop offset="1" stop-color="#b3a2f2"/></linearGradient><path d="M4018.1 1675l-252.4 474.8h532.4l-280-474.8z" opacity=".81" fill="url(#SVGID_2_)"/><linearGradient id="SVGID_3_" gradientUnits="userSpaceOnUse" x1="3108.481" y1="2281.892" x2="3109.513" y2="2282.973" gradientTransform="matrix(371.6882 0 0 -359.371 -1151473.375 822154.313)"><stop offset="0" stop-color="#fff"/><stop offset="1" stop-color="#b3a2f2"/></linearGradient><path d="M3959.7 1754.2l-193.9 395.5h409.1l-215.2-395.5z" opacity=".77" fill="url(#SVGID_3_)"/><path class="st3" d="M3765.7 2149.8h156l165.1-741.8-321.1 741.8z"/></g><g transform="translate(-3136.088 -1009.863)"><image width="798" height="745" xlink:href="8101B91.png" transform="translate(3616.088 1228.32)" overflow="visible"/><g transform="translate(3136.09 1009.86)"><linearGradient id="SVGID_4_" gradientUnits="userSpaceOnUse" x1="-405.793" y1="947.905" x2="-404.856" y2="946.366" gradientTransform="matrix(397.0652 0 0 -347.9769 161864.984 330426.125)"><stop offset="0" stop-color="#fff"/><stop offset="1" stop-color="#b3a2f2"/></linearGradient><path d="M874.9 432.2l-207.2 383h437l-229.8-383z" fill="url(#SVGID_4_)"/></g><linearGradient id="SVGID_5_" gradientUnits="userSpaceOnUse" x1="2731.022" y1="1957.049" x2="2731.863" y2="1957.714" gradientTransform="matrix(312.7671 0 0 -223.563 -850174.188 439258.531)"><stop offset="0" stop-color="#fff"/><stop offset="1" stop-color="#b3a2f2"/></linearGradient><path d="M3967 1579l-163.2 246.1H4148L3967 1579z" opacity=".81" fill="url(#SVGID_5_)"/><linearGradient id="SVGID_6_" gradientUnits="userSpaceOnUse" x1="2731.185" y1="1956.515" x2="2732.217" y2="1957.596" gradientTransform="matrix(240.3479 0 0 -186.248 -652535.875 366200.969)"><stop offset="0" stop-color="#fff"/><stop offset="1" stop-color="#b3a2f2"/></linearGradient><path d="M3929.2 1620.1l-125.4 205h264.5l-139.1-205z" opacity=".77" fill="url(#SVGID_6_)"/><path class="st3" d="M3803.8 1825.1h100.9l106.8-384.4-207.7 384.4z"/></g><g transform="translate(-3136.088 -1009.863)"><image width="474" height="444" xlink:href="8101B93.png" transform="translate(3376.088 1470.32)" overflow="visible"/><g transform="translate(3136.09 1009.86)"><linearGradient id="SVGID_7_" gradientUnits="userSpaceOnUse" x1="-406.698" y1="947.615" x2="-406.16" y2="946.731" gradientTransform="matrix(397.0652 0 0 -347.9769 161864.984 330426.125)"><stop offset="0" stop-color="#fff"/><stop offset="1" stop-color="#b3a2f2"/></linearGradient><path d="M457.6 594.9l-119 219.9h250.9L457.6 594.9z" fill="url(#SVGID_7_)"/></g><linearGradient id="SVGID_8_" gradientUnits="userSpaceOnUse" x1="2729.703" y1="1956.879" x2="2730.186" y2="1957.261" gradientTransform="matrix(312.7671 0 0 -223.563 -850174.188 439258.531)"><stop offset="0" stop-color="#fff"/><stop offset="1" stop-color="#b3a2f2"/></linearGradient><path d="M3568.4 1683.4l-93.7 141.3h197.6l-103.9-141.3z" opacity=".81" fill="url(#SVGID_8_)"/><linearGradient id="SVGID_9_" gradientUnits="userSpaceOnUse" x1="2729.648" y1="1956.469" x2="2730.24" y2="1957.09" gradientTransform="matrix(240.3479 0 0 -186.248 -652535.875 366200.969)"><stop offset="0" stop-color="#fff"/><stop offset="1" stop-color="#b3a2f2"/></linearGradient><path d="M3546.7 1707l-72 117.7h151.9l-79.9-117.7z" opacity=".77" fill="url(#SVGID_9_)"/><path class="st3" d="M3474.7 1824.7h57.9L3594 1604l-119.3 220.7z"/></g><g transform="translate(-3742.727 -951.816)"><image width="699" height="681" xlink:href="8101B96.png" transform="translate(3599.727 1234.273)" overflow="visible"/><g transform="translate(3742.73 951.82)"><linearGradient id="SVGID_10_" gradientUnits="userSpaceOnUse" x1="-405.693" y1="947.742" x2="-404.756" y2="946.203" gradientTransform="matrix(307.6919 0 0 -290.1481 124883.531 275602.156)"><stop offset="0" stop-color="#fff"/><stop offset="1" stop-color="#b3a2f2"/></linearGradient><path d="M160.6 495.9L0 815.2h338.7L160.6 495.9z" fill="url(#SVGID_10_)"/></g><linearGradient id="SVGID_11_" gradientUnits="userSpaceOnUse" x1="3337.789" y1="1898.759" x2="3338.63" y2="1899.424" gradientTransform="matrix(242.373 0 0 -186.41 -805095.563 355639.531)"><stop offset="0" stop-color="#fff"/><stop offset="1" stop-color="#b3a2f2"/></linearGradient><path d="M3869.2 1561.9L3742.7 1767h266.8l-140.3-205.1z" opacity=".81" fill="url(#SVGID_11_)"/><linearGradient id="SVGID_12_" gradientUnits="userSpaceOnUse" x1="3337.991" y1="1898.177" x2="3339.022" y2="1899.258" gradientTransform="matrix(186.25 0 0 -155.3 -617884.438 296536.281)"><stop offset="0" stop-color="#fff"/><stop offset="1" stop-color="#b3a2f2"/></linearGradient><path d="M3839.9 1596.1l-97.2 170.9h205l-107.8-170.9z" opacity=".77" fill="url(#SVGID_12_)"/><path class="st3" d="M3742.7 1767h78.2l82.8-320.5-161 320.5z"/></g></svg>