<svg xmlns="http://www.w3.org/2000/svg" xmlns:xlink="http://www.w3.org/1999/xlink" width="768.335" height="1023.901" viewBox="0 0 768.335 1023.901"><defs><style>.a{fill:url(#a);}.b,.f{fill:#f1f1fd;}.b{opacity:0.2;}.c{fill:url(#b);}.d{fill:#b3a2f2;}.e{fill:#fff;}</style><linearGradient id="a" x1="0.882" y1="0.178" x2="0.231" y2="1.124" gradientUnits="objectBoundingBox"><stop offset="0" stop-color="#b3a2f2"/><stop offset="0.499" stop-color="#6557e1"/><stop offset="1" stop-color="#5946d5"/></linearGradient><linearGradient id="b" x1="0.998" y1="1.052" x2="0.062" y2="0.39" gradientUnits="objectBoundingBox"><stop offset="0" stop-color="#fafafa" stop-opacity="0"/><stop offset="1" stop-color="#fff"/></linearGradient></defs><g transform="translate(-437.977)"><rect class="a" width="768.313" height="1023.901" transform="translate(438)"/><rect class="b" width="133.825" height="17.601" rx="8.801" transform="translate(841.277 156.524)"/><rect class="b" width="150.789" height="22.001" rx="11.001" transform="translate(952.484 214.357)"/><rect class="b" width="150.789" height="22.001" rx="11.001" transform="translate(484.484 192.357)"/><rect class="c" width="128.2" height="4.366" rx="2.183" transform="translate(949.008 278.642) rotate(-43)"/><rect class="c" width="74.155" height="3.123" rx="1.562" transform="translate(1131.64 88.003) rotate(-43)"/><rect class="c" width="74.155" height="3.123" rx="1.562" transform="translate(1115.304 455.741) rotate(-43)"/><rect class="c" width="100.549" height="3.116" rx="1.558" transform="translate(570.064 605.939) rotate(-43)"/><rect class="c" width="100.549" height="3.116" rx="1.558" transform="translate(1054.063 605.939) rotate(-43)"/><rect class="b" width="165.24" height="22.001" rx="11.001" transform="translate(571.37 289.449)"/><rect class="b" width="124.24" height="22.001" rx="11.001" transform="translate(622.37 676.449)"/><rect class="b" width="71.24" height="22.001" rx="11.001" transform="translate(498.37 766.449)"/><rect class="b" width="81.049" height="20.116" rx="10.058" transform="translate(1054.267 291.676)"/><rect class="b" width="81.049" height="20.116" rx="10.058" transform="translate(1109.267 633.676)"/><rect class="b" width="118.049" height="20.116" rx="10.058" transform="translate(997.267 698.676)"/><rect class="b" width="81.049" height="20.116" rx="10.058" transform="translate(1115.211 106.864)"/><path class="d" d="M3315.695-353.417s-14.479,143.53-154.232,181.3-136.983,194.43-136.983,194.43l-.425-111.862.131-263.9Z" transform="translate(-2585.921 353.451)"/><path class="e" d="M3337.695-355.584s-32.429,139.323-167.807,177.565S3039.54,10.8,3039.54,10.8l-.181-92.66.051-273.726Z" transform="translate(-2601.382 355.584)"/><path class="f" d="M3144.125-280.493h43.1s-31.561,60.72-86.305,73.457c-120.582,28.054-111.144,161.783-111.144,161.783l-.173-63.462.173-171.778Z" transform="translate(-2551.583 280.493)"/></g></svg>